<svg xmlns="http://www.w3.org/2000/svg" xmlns:xlink="http://www.w3.org/1999/xlink" width="58" height="53.538" viewBox="0 0 58 53.538">
  <defs>
    <clipPath id="clip-path">
      <rect id="Rectangle_348" data-name="Rectangle 348" width="58" height="53.538" transform="translate(0 0)" fill="none"/>
    </clipPath>
  </defs>
  <g id="Group_357" data-name="Group 357" transform="translate(2 2.541)">
    <g id="Group_331" data-name="Group 331" transform="translate(-2 -2.541)" clip-path="url(#clip-path)">
      <path id="Path_154" data-name="Path 154" d="M17.836.525A28.219,28.219,0,0,0,7.344,22.558a20.8,20.8,0,0,0,.525,4.459A7.4,7.4,0,0,1,11.8,25.967c5.771,0,8.656,4.459,8.656,9.18,0,6.3-4.2,9.967-8.918,9.967C6.033,45.115,0,40.131,0,29.377A33.4,33.4,0,0,1,16.787,0Zm30.951,0A28.219,28.219,0,0,0,38.3,22.558a20.8,20.8,0,0,0,.525,4.459,7.4,7.4,0,0,1,3.934-1.049c5.771,0,8.656,4.459,8.656,9.18,0,6.3-4.2,9.967-8.918,9.967-5.508,0-11.541-4.984-11.541-15.738A33.4,33.4,0,0,1,47.738,0Z" transform="translate(3.401 3.816)" fill="#262626"/>
    </g>
  </g>
</svg>
