<svg
   xmlns:dc="http://purl.org/dc/elements/1.1/"
   xmlns:cc="http://creativecommons.org/ns#"
   xmlns:rdf="http://www.w3.org/1999/02/22-rdf-syntax-ns#"
   xmlns:svg="http://www.w3.org/2000/svg"
   xmlns="http://www.w3.org/2000/svg"
   viewBox="0 0 2665.76 607.94666"
   height="607.94666"
   width="2665.76"
   xml:space="preserve"
   id="svg2"
   version="1.1"><metadata
     id="metadata8"><rdf:RDF><cc:Work
         rdf:about=""><dc:format>image/svg+xml</dc:format><dc:type
           rdf:resource="http://purl.org/dc/dcmitype/StillImage" /></cc:Work></rdf:RDF></metadata><defs
     id="defs6" /><g
     transform="matrix(1.3333333,0,0,-1.3333333,0,607.94667)"
     id="g10"><g
       transform="scale(0.1)"
       id="g12"><path
         id="path14"
         style="fill:#7a7b81;fill-opacity:1;fill-rule:nonzero;stroke:none"
         d="m 6180.93,3156.78 c 123.99,0 222.65,29.6 295.93,88.87 73.28,59.27 109.94,139.71 109.94,241.31 v 5.62 c 0,107.22 -35.74,188.62 -107.13,244.12 -71.39,55.49 -171.94,83.24 -301.59,83.24 h -504.53 v -663.16 z m -850.2,975.08 h 876.72 c 123.64,0 233.23,-17.35 328.77,-51.99 95.54,-34.69 175.14,-82.9 238.85,-144.72 52.43,-54.35 92.73,-117.09 120.83,-188.26 28.1,-71.22 42.15,-149.9 42.15,-236.05 v -5.62 c 0,-80.57 -11.72,-153.14 -35.13,-217.77 -23.44,-64.63 -55.75,-121.8 -96.94,-171.41 -41.22,-49.66 -90.4,-91.81 -147.52,-126.45 -57.17,-34.69 -120.39,-61.38 -189.68,-80.09 l 531.09,-744.65 h -407.45 l -484.81,685.64 h -5.62 -428.44 v -685.64 h -342.82 v 1967.01" /><path
         id="path16"
         style="fill:#7a7b81;fill-opacity:1;fill-rule:nonzero;stroke:none"
         d="m 8829.16,2946.04 -340.01,786.79 -337.2,-786.79 z M 8334.6,4145.9 h 320.34 l 865.48,-1981.05 h -365.3 l -199.51,474.89 H 8025.5 L 7823.18,2164.85 H 7469.12 L 8334.6,4145.9" /><path
         id="path18"
         style="fill:#7a7b81;fill-opacity:1;fill-rule:nonzero;stroke:none"
         d="m 10863.6,2476.76 c 103,0 196.7,16.42 281,49.35 84.3,32.93 155.9,78.99 214.9,138.27 59.1,59.27 104.9,129.82 137.7,211.67 32.8,81.84 49.2,170.7 49.2,266.64 v 5.66 c 0,95.94 -16.4,185.29 -49.2,268.05 -32.8,82.77 -78.6,153.76 -137.7,213.03 -59,59.28 -130.6,105.82 -214.9,139.71 -84.3,33.86 -178,50.8 -281,50.8 h -387.8 V 2476.76 Z m -730.6,1655.1 h 733.4 c 153.6,0 294.6,-24.86 422.9,-74.47 128.3,-49.66 238.8,-118.5 331.6,-206.53 92.7,-88.08 164.4,-191.57 214.9,-310.51 50.6,-118.99 75.9,-247.76 75.9,-386.38 v -5.62 c 0,-138.65 -25.3,-267.91 -75.9,-387.78 -50.5,-119.91 -122.2,-223.88 -214.9,-311.91 -92.8,-88.07 -203.3,-157.36 -331.6,-207.94 -128.3,-50.58 -269.3,-75.87 -422.9,-75.87 H 10133 v 1967.01" /><path
         id="path20"
         style="fill:#7a7b81;fill-opacity:1;fill-rule:nonzero;stroke:none"
         d="m 12625.4,4131.86 h 342.9 V 2164.85 h -342.9 v 1967.01" /><path
         id="path22"
         style="fill:#7a7b81;fill-opacity:1;fill-rule:nonzero;stroke:none"
         d="m 14687.9,2131.13 c -144.2,0 -277.2,26.25 -399,78.68 -121.8,52.43 -227.4,124.08 -316.9,214.97 -89.6,90.84 -159.8,198.11 -210.8,321.74 -51,123.64 -76.4,255.71 -76.4,396.21 v 5.62 c 0,140.5 25,272.09 75,394.81 50,122.67 120.3,230.42 210.8,323.15 90.4,92.73 197.5,165.79 321.1,219.18 123.7,53.39 260.4,80.08 410.3,80.08 89.9,0 171.8,-7.5 245.9,-22.47 74,-15.02 141.9,-36.1 203.7,-63.23 61.8,-27.18 118.9,-59.49 171.4,-96.94 52.4,-37.5 102.1,-78.69 148.9,-123.65 l -222,-255.71 c -78.6,73.07 -162,132.07 -250,177.04 -88.1,44.95 -188.3,67.43 -300.7,67.43 -93.7,0 -180.3,-18.26 -259.9,-54.79 -79.7,-36.53 -148.5,-86.19 -206.6,-148.93 -58.1,-62.78 -103,-136.29 -134.9,-220.58 -31.8,-84.31 -47.7,-174.23 -47.7,-269.77 v -5.62 c 0,-95.54 15.9,-185.94 47.7,-271.16 31.9,-85.27 76.8,-159.73 134.9,-223.4 58.1,-63.7 126.9,-113.8 206.6,-150.33 79.6,-36.53 166.2,-54.8 259.9,-54.8 119.9,0 222.9,22.92 309.1,68.85 86.1,45.88 171.4,108.18 255.7,186.87 l 222,-224.8 c -50.6,-54.36 -103.5,-102.57 -158.8,-144.72 -55.3,-42.15 -114.7,-78.69 -178.4,-109.59 -63.7,-30.91 -133.5,-54.35 -209.4,-70.25 -75.8,-15.9 -159.7,-23.89 -251.5,-23.89" /><g
         transform="scale(1.10452)"
         id="g24"><path
           id="path26"
           style="fill:#7a7b81;fill-opacity:1;fill-rule:nonzero;stroke:none"
           d="m 15674.2,2667.25 -307.8,712.34 -305.3,-712.34 z m -447.8,1086.32 h 290 L 16300,1959.99 h -330.7 l -180.6,429.95 h -842.1 l -183.2,-429.95 h -320.6 l 783.6,1793.58" /></g><g
         transform="scale(1.22656)"
         id="g28"><path
           id="path30"
           style="fill:#7a7b81;fill-opacity:1;fill-rule:nonzero;stroke:none"
           d="m 15177.6,3368.64 h 279.5 V 2019.27 h 843.1 v -254.3 h -1122.6 v 1603.67" /></g><path
         id="path32"
         style="fill:#b21938;fill-opacity:1;fill-rule:nonzero;stroke:none"
         d="m 2387.55,2395.98 c 178.95,0 321.35,42.71 427.11,128.26 105.76,85.55 158.67,201.64 158.67,348.27 v 8.12 c 0,154.75 -51.58,272.23 -154.62,352.33 -103.04,80.1 -248.15,120.15 -435.28,120.15 h -728.17 v -957.13 z m -1227.07,1407.3 h 1265.35 c 178.44,0 336.61,-25.03 474.5,-75.03 137.89,-50.06 252.78,-119.64 344.73,-208.87 75.66,-78.45 133.83,-169 174.39,-271.72 40.55,-102.79 60.83,-216.34 60.83,-340.67 v -8.11 c 0,-116.28 -16.92,-221.03 -50.7,-314.31 -33.83,-93.28 -80.47,-175.79 -139.91,-247.39 -59.5,-71.67 -130.48,-132.51 -212.92,-182.5 -82.51,-50.07 -173.76,-88.6 -273.75,-115.59 L 4239.51,20.2422 H 3651.45 L 2281.72,1953.93 h -8.11 -618.35 V 964.359 H 1160.48 V 3803.28" /><path
         id="path34"
         style="fill:#7a7b81;fill-opacity:1;fill-rule:nonzero;stroke:none"
         d="m 7552.99,2.69141 c -51.16,0 -102.99,9.08989 -155.5,27.19919 -52.51,18.1407 -101.22,44.8985 -146.09,80.2814 l 72.71,110.629 c 38.58,-28.731 77.86,-50.492 117.81,-65.289 39.93,-14.821 78.3,-22.223 115.11,-22.223 35.01,0 62.15,6.941 81.46,20.82 19.29,13.891 28.95,32.461 28.95,55.75 v 2.7 c 0,13.421 -4.27,25.05 -12.79,34.902 -8.55,9.84 -20.2,18.359 -35.01,25.539 -14.81,7.148 -31.87,13.879 -51.16,20.152 -19.31,6.27 -39.28,12.539 -59.92,18.797 -26.04,7.16 -52.3,15.68 -78.76,25.531 -26.48,9.84 -50.28,22.61 -71.36,38.282 -21.1,15.679 -38.37,35.16 -51.83,58.449 -13.47,23.281 -20.2,51.93 -20.2,85.98 v 2.688 c 0,33.141 6.5,63.141 19.52,89.992 13.01,26.871 30.97,49.719 53.86,68.527 22.89,18.813 49.81,33.133 80.78,42.981 30.97,9.84 63.96,14.781 98.96,14.781 44.87,0 90.21,-7.262 135.99,-21.769 45.77,-14.52 87.51,-34.461 125.21,-59.852 L 7736.1,541.242 c -34.12,20.637 -68.66,37.028 -103.67,49.149 -35,12.109 -67.32,18.168 -96.94,18.168 -31.43,0 -55.88,-6.727 -73.38,-20.149 -17.5,-13.441 -26.25,-30.461 -26.25,-51.039 v -2.691 c 0,-12.539 4.48,-23.52 13.46,-32.918 8.97,-9.41 20.87,-17.903 35.68,-25.52 14.81,-7.621 31.85,-14.793 51.16,-21.5 19.29,-6.73 39.26,-13.222 59.92,-19.492 26.02,-8.051 52.05,-17.461 78.09,-28.199 26.02,-10.75 49.58,-23.961 70.68,-39.641 21.08,-15.672 38.38,-34.699 51.84,-57.101 13.47,-22.379 20.19,-49.7 20.19,-81.93 v -2.699 c 0,-37.61 -6.72,-70.301 -20.19,-98.071 -13.46,-27.777 -32.1,-50.8277 -55.87,-69.1676 -23.8,-18.3711 -51.84,-32.25 -84.15,-41.6523 C 7624.35,7.39844 7589.79,2.69141 7552.99,2.69141" /><path
         id="path36"
         style="fill:#7a7b81;fill-opacity:1;fill-rule:nonzero;stroke:none"
         d="m 8748.58,999.012 h 164.27 v -587.02 l 294.86,315.047 h 197.91 L 9122.88,437.57 9415.05,16.1484 h -188.5 L 9012.48,323.129 8912.85,219.449 V 16.1484 H 8748.58 V 999.012" /><path
         id="path38"
         style="fill:#7a7b81;fill-opacity:1;fill-rule:nonzero;stroke:none"
         d="m 10307.7,727.039 h 164.2 V 16.1484 h -164.2 z m -6.7,263.902 h 176.3 V 836.102 H 10301 v 154.839" /><path
         id="path40"
         style="fill:#7a7b81;fill-opacity:1;fill-rule:nonzero;stroke:none"
         d="m 11449.4,727.039 h 164.3 V 615.512 c 11.6,17.199 24.4,33.277 38.2,48.207 13.9,14.941 30,28.301 48.4,40.082 18.3,11.781 38.5,21.051 60.4,27.847 21.9,6.801 46.8,10.211 74.5,10.211 80.6,0 142.8,-24.699 186.6,-74.058 43.9,-49.371 65.8,-115.789 65.8,-199.262 V 16.1484 h -164.3 V 419.121 c 0,55.52 -13.1,98.289 -39.3,128.289 -26.3,29.988 -63.4,44.988 -111.5,44.988 -47.2,0 -85.4,-15.457 -114.8,-46.339 -29.3,-30.899 -44,-74.118 -44,-129.61 V 16.1484 h -164.3 V 727.039" /><path
         id="path42"
         style="fill:#7a7b81;fill-opacity:1;fill-rule:nonzero;stroke:none"
         d="m 13380.1,0 c -52.9,0 -101.9,9.64844 -146.8,28.9492 -44.9,19.2813 -83.8,45.543 -116.9,78.7618 -33,33.199 -58.8,72.238 -77.3,117.129 -18.6,44.879 -27.9,92.449 -27.9,142.719 v 2.691 c 0,50.262 9.3,98.059 27.9,143.391 18.5,45.32 44.3,84.828 77.3,118.488 33.1,33.652 72.3,60.351 117.6,80.113 45.4,19.719 94.5,29.617 147.5,29.617 67.3,0 123.2,-11.23 167.6,-33.668 44.4,-22.441 83.2,-52.062 116.5,-88.851 l -101,-109.07 c -25.2,26.031 -51.9,47.339 -80.1,63.96 -28.3,16.602 -63.1,24.911 -104.4,24.911 -29.6,0 -57,-6.059 -82.1,-18.18 -25.1,-12.109 -46.7,-28.27 -64.6,-48.469 -18,-20.191 -32.1,-44.222 -42.4,-72.031 -10.4,-27.832 -15.5,-57.012 -15.5,-87.512 v -2.699 c 0,-31.43 5.1,-61.051 15.5,-88.859 10.3,-27.84 24.9,-52.059 43.7,-72.711 18.9,-20.649 41.3,-37.02 67.3,-49.141 26.1,-12.117 54.8,-18.168 86.2,-18.168 38.6,0 72.5,8.289 101.7,24.91 29.1,16.59 56.7,37.899 82.8,63.938 l 98.2,-96.93 C 13635.9,93.7813 13596,61.6992 13551.1,37.0195 13506.2,12.3398 13449.2,0 13380.1,0" /><path
         id="path44"
         style="fill:#7a7b81;fill-opacity:1;fill-rule:nonzero;stroke:none"
         d="m 15024.1,313.699 c -20.7,8.09 -45.1,14.821 -73.4,20.199 -28.3,5.391 -58.1,8.082 -89.6,8.082 -51.1,0 -91.1,-9.89 -119.8,-29.628 -28.7,-19.743 -43.1,-46.68 -43.1,-80.782 v -2.691 c 0,-34.117 13.3,-60.137 39.7,-78.09 26.5,-17.969 59.1,-26.918 97.7,-26.918 26.9,0 51.8,3.57 74.7,10.77 22.9,7.168 42.8,17.261 59.9,30.289 17,13 30.3,28.711 39.7,47.121 9.4,18.39 14.2,38.82 14.2,61.258 z M 15020,16.1484 v 87.5236 c -24.2,-28.7423 -55.2,-52.9806 -92.9,-72.7032 -37.7,-19.7383 -83.5,-29.62896 -137.3,-29.62896 -34.1,0 -66.5,4.71094 -96.9,14.14066 -30.6,9.4179 -57.3,23.3281 -80.2,41.7383 -22.8,18.3906 -41.3,41.2812 -55.2,68.6602 -13.9,27.371 -20.8,59.012 -20.8,94.922 v 2.699 c 0,39.48 7.1,73.809 21.5,102.992 14.4,29.16 34.3,53.387 59.9,72.707 25.6,19.293 56.1,33.66 91.6,43.09 35.4,9.422 73.8,14.141 115.1,14.141 43.1,0 79.6,-2.7 109.7,-8.09 30.1,-5.379 59,-12.578 86.9,-21.539 v 13.461 c 0,49.359 -15.1,87.047 -45.1,113.097 -30.1,26.02 -73.4,39.039 -130,39.039 -40.4,0 -76.3,-4.027 -107.7,-12.109 -31.4,-8.078 -63.3,-18.848 -95.6,-32.309 l -44.4,130.59 c 39.5,17.95 79.9,32.321 121.2,43.09 41.3,10.77 91.1,16.149 149.4,16.149 105.9,0 184.5,-26.25 235.6,-78.758 51.2,-52.512 76.8,-126.34 76.8,-221.481 V 16.1484 H 15020" /><g
         transform="scale(1.0158)"
         id="g46"><path
           id="path48"
           style="fill:#7a7b81;fill-opacity:1;fill-rule:nonzero;stroke:none"
           d="m 15890.5,715.728 h 161.6 V 558.013 c 22.1,53.01 53.5,95.43 94.1,127.228 40.7,31.817 91.9,46.396 153.8,43.75 V 559.332 h -9.3 c -35.3,0 -67.6,-5.76 -96.7,-17.239 -29.2,-11.49 -54.4,-28.718 -75.6,-51.695 -21.2,-22.984 -37.5,-51.906 -49.1,-86.808 -11.5,-34.916 -17.2,-75.336 -17.2,-121.27 V 15.8972 h -161.6 V 715.728" /></g><g
         transform="scale(1.11121)"
         id="g50"><path
           id="path52"
           style="fill:#7a7b81;fill-opacity:1;fill-rule:nonzero;stroke:none"
           d="m 16154.6,379.246 c -2.5,23.416 -7.8,45.425 -15.8,66.036 -8.1,20.599 -19,38.345 -32.7,53.302 -13.7,14.937 -30.1,26.854 -49.1,35.744 -19,8.883 -40.6,13.327 -64.8,13.327 -45.2,0 -82.6,-15.559 -112.1,-46.642 -29.5,-31.11 -47.4,-71.698 -53.9,-121.767 z M 16009.1,0 c -45.9,0 -89,8.07117 -129,24.2276 -40,16.1528 -74.7,38.7774 -104.2,67.8526 -29.4,29.0858 -52.7,64.0108 -69.7,104.8058 -16.9,40.785 -25.4,85.823 -25.4,135.104 v 2.422 c 0,46.04 7.7,89.243 23,129.641 15.4,40.388 37,75.727 64.9,106.019 27.8,30.291 60.7,54.104 98.7,71.491 38,17.359 79.9,26.052 126,26.052 50.9,0 95.5,-9.305 133.9,-27.87 38.3,-18.592 70.3,-43.618 95.8,-75.125 25.3,-31.508 44.5,-68.053 57.5,-109.647 12.9,-41.61 19.4,-85.429 19.4,-131.469 0,-6.472 -0.3,-13.14 -0.6,-19.988 -0.5,-6.876 -1.1,-13.931 -1.8,-21.211 h -470.1 c 8,-52.519 28.8,-92.692 62.3,-120.551 33.5,-27.873 74.1,-41.804 121.8,-41.804 36.3,0 67.8,6.454 94.5,19.387 26.6,12.911 52.9,31.891 78.7,56.955 l 86,-76.342 C 16240.2,83.6013 16203.6,54.5261 16161.2,32.7135 16118.8,10.8975 16068.1,0 16009.1,0" /></g><path
         id="path54"
         style="fill:#b21938;fill-opacity:1;fill-rule:nonzero;stroke:none"
         d="m 2202.5,4559.6 c -297.26,0 -585.72,-58.26 -857.37,-173.16 C 1082.84,4275.5 847.313,4116.72 645.098,3914.5 442.883,3712.29 284.098,3476.76 173.16,3214.47 58.2578,2942.82 0,2654.36 0,2357.1 0,2059.84 58.2578,1771.39 173.16,1499.74 284.098,1237.44 442.883,1001.91 645.098,799.699 847.313,597.48 1082.84,438.699 1345.13,327.75 1616.78,212.859 1905.24,154.602 2202.5,154.602 c 297.26,0 585.72,58.257 857.37,173.148 262.29,110.949 497.82,269.73 700.03,471.949 202.22,202.211 361,437.741 471.94,700.041 114.9,271.65 173.16,560.1 173.16,857.36 0,297.26 -58.26,585.72 -173.16,857.37 -110.94,262.29 -269.72,497.82 -471.94,700.03 -202.21,202.22 -437.74,361 -700.03,471.94 -271.65,114.9 -560.11,173.16 -857.37,173.16 z m 0,-180 C 3319.5,4379.6 4225,3474.1 4225,2357.1 4225,1240.11 3319.5,334.602 2202.5,334.602 1085.5,334.602 180,1240.11 180,2357.1 c 0,1117 905.5,2022.5 2022.5,2022.5" /></g></g></svg>