<svg xmlns="http://www.w3.org/2000/svg" width="37.453" height="19.652" viewBox="0 0 37.453 19.652">
  <g id="Group_61" data-name="Group 61" transform="translate(36.953 0.556) rotate(90)" opacity="1">
    <path id="Path_33" data-name="Path 33" d="M35.837,0A.611.611,0,0,0,35.4.18L18.226,17.134,1.05.18a.612.612,0,0,0-.867,0,.6.6,0,0,0,0,.859l17.61,17.387a.636.636,0,0,0,.867,0L36.27,1.039a.6.6,0,0,0,0-.859A.61.61,0,0,0,35.836,0Z" transform="translate(18.597 0) rotate(90)" fill="#333" stroke="#333" stroke-width="1"/>
  </g>
</svg>