<svg xmlns="http://www.w3.org/2000/svg" width="26.42" height="27.09" viewBox="0 0 26.42 27.09">
  <path id="noun-bag-3908284" d="M83.213,0a5.926,5.926,0,0,0-5.926,5.926v.847H75.314a2.54,2.54,0,0,0-2.5,2.085L70.045,24.1a2.54,2.54,0,0,0,2.5,2.994H93.883a2.54,2.54,0,0,0,2.5-2.994L93.611,8.858a2.54,2.54,0,0,0-2.5-2.085H89.139V5.926A5.926,5.926,0,0,0,83.213,0Zm4.233,8.466v2.54a.847.847,0,1,0,1.693,0V8.466h1.973a.847.847,0,0,1,.833.7L94.716,24.4a.847.847,0,0,1-.833,1H72.544a.847.847,0,0,1-.833-1L74.481,9.161a.847.847,0,0,1,.833-.7h1.973v2.54a.847.847,0,1,0,1.693,0V8.466Zm0-1.693V5.926a4.233,4.233,0,0,0-8.466,0v.847Z" transform="translate(-70.003)" fill="#333" fill-rule="evenodd"/>
</svg>