<svg xmlns="http://www.w3.org/2000/svg" xmlns:xlink="http://www.w3.org/1999/xlink" width="48.043" height="44.347" viewBox="0 0 48.043 44.347">
  <defs>
    <clipPath id="clip-path">
      <rect id="Rectangle_406" data-name="Rectangle 406" width="48.043" height="44.347" transform="translate(0 0)" fill="none"/>
    </clipPath>
  </defs>
  <g id="Group_399" data-name="Group 399" clip-path="url(#clip-path)">
    <path id="Path_211" data-name="Path 211" d="M14.774.435a23.374,23.374,0,0,0-8.691,18.25,17.231,17.231,0,0,0,.435,3.694,6.131,6.131,0,0,1,3.259-.869c4.78,0,7.17,3.694,7.17,7.6,0,5.214-3.476,8.256-7.387,8.256C5,37.37,0,33.242,0,24.334A27.669,27.669,0,0,1,13.905,0Zm25.638,0a23.374,23.374,0,0,0-8.691,18.25,17.231,17.231,0,0,0,.435,3.694,6.131,6.131,0,0,1,3.259-.869c4.78,0,7.17,3.694,7.17,7.6,0,5.214-3.476,8.256-7.387,8.256-4.563,0-9.56-4.128-9.56-13.036A27.669,27.669,0,0,1,39.543,0Z" transform="translate(2.817 3.161)" fill="#262626"/>
  </g>
</svg>